<?xml version="1.0" standalone="no"?>
<!DOCTYPE svg PUBLIC "-//W3C//DTD SVG 20010904//EN"
 "http://www.w3.org/TR/2001/REC-SVG-20010904/DTD/svg10.dtd">
<svg version="1.0" xmlns="http://www.w3.org/2000/svg"
 width="400.000000pt" height="400.000000pt" viewBox="0 0 400.000000 400.000000"
 preserveAspectRatio="xMidYMid meet">

<g transform="translate(0.000000,400.000000) scale(0.100000,-0.100000)"
fill="#000000" stroke="none">
<path d="M0 3384 c0 -547 2 -615 15 -604 19 16 19 1 0 -27 -13 -18 -15 -58
-13 -240 l3 -218 23 -1 c13 -1 38 -15 56 -33 17 -17 36 -31 41 -31 18 -1 80
-58 72 -66 -4 -5 -14 -4 -21 1 -12 10 -82 55 -143 94 -32 20 -33 20 -33 1 0
-11 4 -20 10 -20 5 0 25 -14 43 -30 19 -17 39 -30 44 -30 18 0 51 -45 49 -68
-1 -15 -14 -30 -43 -47 l-43 -24 -30 25 c-29 25 -30 25 -30 5 0 -12 18 -37 40
-57 37 -33 48 -62 23 -57 -5 1 -10 -4 -10 -12 0 -23 70 28 89 66 10 19 18 54
18 79 0 44 2 47 36 59 33 12 38 11 62 -11 73 -67 125 -97 206 -118 110 -29
114 -38 65 -139 -21 -44 -44 -112 -54 -161 -25 -128 -22 -123 -58 -116 -17 4
-35 13 -40 21 -4 9 -12 13 -17 10 -5 -3 -1 -14 10 -25 23 -23 18 -43 -13 -58
-21 -10 -21 -11 11 -17 23 -5 32 -13 32 -27 0 -18 -5 -19 -42 -13 l-43 7 35
-31 c29 -25 33 -32 20 -41 -10 -6 -11 -10 -2 -10 20 0 14 -55 -15 -125 -22
-54 -30 -65 -50 -65 -21 0 -23 -3 -18 -32 5 -28 0 -39 -27 -69 -18 -20 -43
-40 -55 -43 -14 -5 -23 -15 -23 -28 0 -17 -2 -18 -15 -8 -10 9 -15 9 -15 1 0
-6 3 -11 8 -11 4 0 15 -7 25 -14 17 -13 15 -19 -37 -97 -31 -45 -70 -119 -87
-163 -17 -45 -37 -86 -45 -92 -11 -9 -14 -43 -13 -161 l0 -151 59 -31 c33 -18
60 -36 60 -42 0 -16 -13 -10 -65 27 l-50 35 -3 -51 c-2 -28 -2 -71 0 -96 l3
-45 45 30 c25 17 70 60 99 96 31 38 58 62 64 58 6 -4 21 -8 32 -9 12 -1 36
-11 54 -22 l31 -19 -36 -54 c-33 -49 -34 -52 -9 -29 l28 25 -18 -28 c-17 -26
-17 -29 -2 -44 15 -15 18 -15 34 -1 10 9 33 19 51 23 25 5 32 3 32 -9 0 -10
-9 -16 -24 -16 -14 0 -28 -4 -31 -10 -7 -11 24 -13 49 -4 9 3 16 17 16 29 0
18 -6 25 -24 27 -22 3 -23 5 -11 22 13 17 15 17 30 2 9 -9 23 -16 31 -16 8 0
14 -4 14 -10 0 -5 7 -7 15 -4 23 9 18 -13 -15 -62 -17 -24 -29 -44 -26 -44 3
0 24 27 46 60 l41 61 42 -38 c23 -21 64 -60 90 -87 l48 -50 -33 -17 c-32 -18
-16 -18 500 -19 531 0 533 0 522 20 -14 27 -5 40 25 38 30 -3 34 -32 8 -47
-16 -9 -16 -10 3 -11 26 0 37 42 21 78 -8 18 -8 25 3 32 12 7 11 12 -4 28 -10
12 -13 22 -7 26 11 7 61 -42 61 -60 0 -7 9 -14 20 -17 24 -6 28 -52 5 -61 -62
-24 39 -26 1080 -26 l1095 0 0 144 c0 124 -2 147 -17 162 -17 17 -17 18 0 11
30 -11 20 22 -21 72 -39 46 -85 115 -65 96 6 -5 29 -32 52 -58 23 -27 41 -46
41 -43 0 2 -35 52 -78 109 -105 142 -176 240 -181 251 -11 27 237 -180 261
-218 5 -7 8 -7 8 0 0 5 -14 23 -31 40 -38 35 -112 145 -163 239 -45 83 -47 85
85 -80 l104 -130 3 40 c3 44 -21 93 -136 278 -48 79 -53 91 -43 113 27 60 -3
104 -69 104 -30 0 -42 5 -47 18 -4 9 -11 20 -17 24 -12 8 -19 51 -7 43 5 -3
12 -1 16 5 10 16 120 60 151 60 7 0 17 -15 22 -32 7 -26 6 -36 -6 -45 -14 -11
-13 -13 6 -13 16 0 22 -6 23 -22 1 -14 4 -10 8 12 5 26 11 35 24 33 10 0 16 1
13 4 -2 3 11 18 30 35 31 27 48 58 24 43 -5 -3 -10 -2 -10 3 0 4 -10 19 -22
32 l-22 23 32 -6 c30 -6 32 -5 32 23 0 23 -6 33 -26 42 -26 12 -26 14 -19 82
4 39 15 93 26 121 17 44 19 77 19 265 0 198 -2 221 -24 290 -23 73 -23 74 -35
47 -6 -16 -11 -63 -11 -105 0 -124 -15 -114 -29 19 -18 177 -29 197 -49 84 -8
-48 -9 -49 -16 -20 -4 17 -10 37 -13 45 -3 8 -24 -44 -47 -116 -37 -113 -93
-238 -126 -277 -6 -7 -19 -24 -31 -39 -28 -37 -40 -35 -28 5 6 17 12 57 14 87
7 91 42 268 47 240 4 -19 5 -17 5 10 1 19 -2 49 -6 65 -6 23 -10 9 -20 -67
-18 -139 -63 -300 -112 -403 -24 -50 -47 -93 -53 -97 -5 -3 -11 -14 -12 -24
-2 -9 -17 -31 -35 -48 -25 -23 -28 -25 -14 -6 l20 25 -22 -19 c-13 -11 -23
-25 -23 -32 0 -13 -129 -149 -135 -142 -3 3 28 109 60 203 l14 40 -5 -45 -5
-45 20 39 c11 21 26 66 32 100 6 33 15 68 20 76 8 12 9 11 5 -5 -2 -11 -7 -46
-11 -77 -5 -50 -4 -57 9 -52 24 9 53 81 70 173 19 100 19 94 2 88 -18 -7 -26
40 -26 158 0 101 -12 137 -29 92 -6 -16 -14 -47 -17 -70 -7 -44 -29 -120 -43
-146 -10 -17 -17 44 -26 232 -8 159 -18 185 -35 87 -7 -41 -15 -79 -19 -85 -3
-5 -6 -12 -7 -15 0 -3 -9 -23 -19 -45 -10 -22 -32 -83 -50 -135 -56 -162 -76
-210 -125 -296 -27 -45 -45 -85 -42 -89 4 -3 -1 -3 -11 1 -9 3 -17 10 -17 16
0 5 5 6 12 2 8 -5 9 -2 5 9 -4 10 -2 17 4 17 6 0 9 7 5 15 -3 8 -1 15 5 15 5
0 9 6 8 13 -1 6 15 48 36 92 71 149 87 209 90 333 2 63 6 116 8 119 3 3 19
-14 36 -38 17 -23 31 -38 31 -33 0 5 -7 18 -15 28 -8 10 -12 23 -9 28 3 5 0 7
-7 6 -6 -2 -14 3 -17 11 -3 8 0 11 7 7 6 -4 11 -2 11 3 0 6 -6 11 -14 11 -18
0 -24 8 -31 49 -7 43 -66 117 -76 98 -9 -15 -38 -340 -39 -432 -1 -95 -4 -120
-16 -118 -6 1 -11 -12 -10 -30 0 -85 -33 -223 -73 -296 l-18 -34 1 46 c1 25 4
41 7 35 11 -18 51 185 51 259 0 30 3 41 11 37 8 -5 8 -2 0 7 -8 7 -13 41 -14
79 0 36 -8 139 -18 230 -10 91 -17 167 -15 169 1 1 13 -4 26 -13 12 -9 27 -16
33 -16 15 1 -38 40 -54 40 -14 0 -12 63 5 164 5 29 4 37 -5 32 -9 -6 -10 0 -5
20 13 51 -13 16 -52 -71 -21 -47 -41 -85 -44 -85 -3 0 -15 6 -25 14 -19 14
-19 17 -3 113 10 54 20 109 24 123 l6 25 -22 -24 -21 -25 6 27 c4 15 4 27 0
27 -10 0 -54 -48 -49 -53 2 -2 -12 -3 -31 -2 -20 1 -38 5 -42 8 -3 4 -12 -1
-18 -10 -9 -12 -17 -14 -27 -8 -8 6 -6 3 3 -6 10 -9 15 -27 14 -43 -3 -21 1
-30 16 -33 10 -3 19 -9 19 -13 0 -15 -36 2 -80 37 -25 20 -37 33 -28 30 10 -3
20 -2 23 4 4 5 11 6 17 3 7 -5 8 -2 4 5 -5 7 -15 10 -24 6 -11 -4 -8 2 7 19
13 14 28 23 34 19 6 -3 7 -1 3 6 -4 6 -2 18 4 26 7 9 8 15 2 15 -5 0 -15 -7
-22 -15 -11 -13 -15 -13 -21 -3 -7 11 -9 11 -9 0 0 -7 -5 -10 -11 -6 -8 4 -8
9 0 17 6 6 11 15 11 19 0 17 -27 7 -63 -23 -42 -35 -58 -35 -27 -1 12 12 17
22 13 22 -4 0 11 19 32 42 41 43 19 29 -45 -29 -19 -18 -38 -33 -41 -33 -15 0
-31 31 -26 50 3 12 1 18 -5 14 -6 -4 -14 0 -19 7 -4 8 -14 14 -20 14 -7 0 -17
7 -22 17 -8 12 -4 30 16 75 33 72 18 83 -33 25 -19 -23 -39 -42 -42 -42 -15 0
-62 74 -69 108 l-7 37 -1 -37 c0 -21 10 -62 23 -92 l25 -55 -53 -64 c-29 -36
-65 -87 -81 -113 -16 -27 -32 -51 -36 -54 -5 -4 -34 -42 -64 -85 -30 -44 -55
-77 -55 -73 0 3 20 41 45 84 50 88 55 106 23 78 -21 -19 -21 -19 -14 1 4 11 9
25 10 30 2 11 13 33 80 154 40 74 46 92 45 140 -1 47 -3 51 -9 26 -4 -16 -8
-45 -9 -64 0 -19 -8 -43 -17 -52 -9 -10 -31 -45 -48 -77 -52 -98 -107 -192
-113 -192 -5 0 0 60 12 151 10 80 105 400 126 426 7 7 9 16 6 20 -4 3 -2 14 4
25 7 13 7 23 0 31 -6 8 -6 18 -1 27 14 21 12 53 -1 44 -8 -5 -10 8 -6 42 2 26
9 50 16 52 6 2 11 9 11 16 0 18 117 127 195 181 92 65 115 91 115 136 0 26
-10 23 -80 -27 -82 -60 -138 -112 -200 -189 -31 -38 -63 -71 -70 -73 -12 -3
-11 0 1 15 9 10 26 41 39 68 32 69 118 169 205 240 59 48 104 96 105 111 0 7
-18 19 -40 28 -44 17 -101 13 -319 -24 -134 -23 -131 -23 -155 -5 -19 14 -19
15 0 36 19 22 19 22 -3 15 -38 -12 -27 0 49 53 l72 51 -96 0 c-78 0 -100 -3
-119 -19 -13 -10 -38 -25 -55 -34 -17 -9 -53 -33 -80 -53 -54 -42 -45 -25 30
53 l49 52 -319 0 -319 1 -54 -30 c-64 -36 -74 -38 -35 -8 16 12 33 25 39 30 5
4 -246 8 -558 8 l-567 0 0 -616z m1318 494 c-3 -7 -40 -23 -84 -36 -154 -46
-177 -54 -228 -78 -55 -27 -125 -48 -110 -34 20 19 273 125 339 141 87 22 88
22 83 7z m642 -48 c0 -5 -12 -10 -27 -10 -22 0 -25 2 -13 10 20 13 40 13 40 0z
m-320 -24 c0 -2 -8 -10 -17 -17 -16 -13 -17 -12 -4 4 13 16 21 21 21 13z m-1
-63 c-94 -96 -109 -115 -103 -124 3 -5 -3 -6 -13 -2 -15 6 -16 4 -6 -8 10 -13
5 -23 -34 -60 -44 -42 -45 -42 -22 -9 13 19 25 42 27 50 2 8 13 25 25 37 12
11 33 36 47 54 37 49 100 115 100 106 0 -5 7 -1 16 7 8 9 18 16 22 16 4 0 -23
-30 -59 -67z m221 -19 c0 -8 -4 -13 -9 -10 -5 3 -14 -1 -21 -9 -7 -8 -16 -12
-21 -9 -5 3 -9 1 -9 -5 0 -17 -35 -4 -39 15 -2 10 0 16 4 12 5 -4 14 -3 22 3
7 6 13 9 13 6 0 -4 26 1 58 12 1 1 2 -6 2 -15z m-1560 -2 c0 -9 -40 -35 -46
-29 -6 6 25 37 37 37 5 0 9 -3 9 -8z m-60 -34 c0 -5 -9 -12 -21 -15 -14 -4
-19 -12 -17 -30 2 -17 -4 -28 -22 -38 -46 -27 -105 -53 -132 -60 -44 -11 -36
28 16 82 60 61 176 101 176 61z m1508 -6 c4 -12 -44 -39 -68 -37 -8 0 -18 -4
-22 -10 -5 -7 -8 -6 -8 1 0 13 71 64 84 60 6 -1 11 -7 14 -14z m212 -113 c0
-5 7 -6 16 -2 12 4 14 0 8 -23 -4 -16 -7 -37 -6 -48 1 -18 1 -18 -13 0 -8 11
-15 24 -15 29 0 6 -6 22 -14 36 -12 24 -12 26 5 22 11 -3 19 -9 19 -14z m-16
-71 c19 -53 19 -138 -1 -145 -7 -3 -10 -9 -7 -14 3 -5 -2 -6 -11 -2 -10 3 -21
0 -25 -7 -6 -10 -11 -8 -19 7 -14 28 -51 194 -41 188 5 -3 15 2 23 10 9 8 20
15 26 15 6 0 11 5 11 12 0 23 26 -15 44 -64z m63 40 c-3 -8 -6 -5 -6 6 -1 11
2 17 5 13 3 -3 4 -12 1 -19z m-987 -46 l45 -10 -57 -1 c-41 -1 -73 6 -113 23
-30 14 -55 27 -55 29 0 2 30 -4 68 -13 37 -10 87 -22 112 -28z m758 -12 c2
-32 -7 -54 -37 -102 -34 -53 -38 -65 -29 -90 6 -15 7 -35 4 -43 -10 -28 9 -14
39 27 17 23 36 44 44 46 8 3 -7 -24 -34 -59 -63 -83 -69 -89 -62 -62 3 13 1
26 -5 29 -5 3 -13 16 -17 27 -7 19 -13 13 -43 -48 -19 -39 -41 -88 -48 -110
-13 -38 -13 -39 -22 -15 -16 41 -4 169 20 224 29 65 87 139 141 182 24 19 45
34 46 34 1 0 2 -18 3 -40z m-840 -148 c1 -18 -5 -31 -18 -40 -26 -16 -37 -10
-42 27 -4 27 -1 30 26 34 17 2 31 5 31 5 1 1 2 -10 3 -26z m607 -68 c-6 -2 -9
-33 -8 -71 2 -53 0 -63 -7 -43 -6 14 -24 33 -40 42 -41 23 -41 58 -1 58 16 0
34 7 41 15 7 9 16 13 19 9 3 -4 2 -8 -4 -10z m323 -55 c8 -28 11 -69 7 -114
-3 -38 -6 -81 -6 -94 -1 -18 -3 -21 -10 -10 -7 11 -9 9 -9 -7 0 -12 -21 -43
-47 -70 -25 -27 -45 -53 -44 -59 15 -48 17 -75 8 -84 -6 -6 -8 -11 -4 -11 5 0
-6 -20 -23 -44 -35 -51 -39 -67 -10 -41 11 10 20 14 20 8 0 -31 -83 -66 -93
-39 -4 9 -13 16 -22 16 -24 0 -66 -31 -58 -43 3 -5 2 -7 -4 -4 -14 9 -69 -51
-87 -95 -23 -54 -19 -70 6 -23 35 68 77 105 119 105 39 0 104 23 130 46 14 12
15 9 13 -31 -2 -24 -8 -61 -13 -82 -6 -20 -7 -55 -4 -78 l7 -40 7 50 c4 28 16
70 27 95 19 44 20 44 30 20 7 -18 4 -43 -9 -92 -11 -37 -19 -78 -19 -90 -1
-22 -1 -23 -15 -4 -8 11 -15 15 -15 9 0 -6 7 -16 15 -23 8 -7 15 -22 16 -34 0
-20 1 -20 8 -1 5 11 6 23 4 28 -8 13 29 111 54 145 21 28 28 32 39 20 7 -7 14
-24 16 -38 2 -14 7 -31 11 -38 21 -32 -32 -244 -73 -294 -16 -20 -76 -36 -65
-17 3 3 -20 12 -50 19 -59 14 -106 10 -204 -20 -80 -25 -132 -25 -234 0 -131
33 -155 46 -183 104 -14 28 -28 71 -31 96 -7 54 -23 89 -22 50 0 -14 6 -63 13
-110 13 -83 12 -85 -9 -106 l-22 -21 -23 29 c-13 16 -26 25 -29 21 -3 -4 -19
-10 -36 -12 -16 -1 -48 -16 -71 -33 -36 -26 -45 -28 -64 -18 -15 8 -20 18 -17
33 3 12 11 51 17 87 15 87 61 262 73 278 7 8 45 12 126 12 64 0 161 7 216 15
55 8 126 15 157 15 49 0 59 3 69 23 11 21 11 21 -7 6 -20 -18 -72 -24 -317
-35 -102 -5 -149 -3 -178 6 -37 13 -39 15 -33 44 3 17 7 32 8 32 0 1 38 4 82
6 53 3 90 11 105 22 13 9 19 16 13 16 -5 0 -14 -4 -20 -10 -5 -5 -26 -10 -46
-12 -30 -2 -44 4 -69 27 l-32 30 18 -27 c17 -27 16 -27 -9 -34 -13 -3 -30 -3
-35 1 -12 7 -15 212 -5 289 l7 46 150 0 c98 0 177 6 229 16 93 19 143 10 208
-37 37 -27 40 -33 40 -77 0 -53 -28 -147 -58 -190 -19 -28 -42 -78 -42 -90 0
-9 44 63 66 108 47 99 59 207 26 244 -17 18 -17 24 -6 46 11 19 14 21 14 7 0
-23 42 -106 70 -137 l22 -25 -16 27 c-20 34 -20 38 2 38 22 0 92 44 146 92 30
26 36 37 26 43 -9 5 -11 4 -6 -3 7 -12 -5 -16 -31 -13 -7 1 -13 -7 -13 -19 0
-13 -16 -30 -47 -50 -111 -71 -157 -11 -92 118 17 34 39 67 50 72 17 10 18 7
16 -36 -3 -51 8 -63 43 -44 32 17 57 45 65 72 14 44 36 79 48 75 6 -2 18 -23
25 -48z m-1258 26 c15 -18 7 -43 -16 -52 -24 -9 -46 24 -33 48 12 23 32 24 49
4z m400 11 c0 -2 -8 -10 -17 -17 -16 -13 -17 -12 -4 4 13 16 21 21 21 13z
m1035 -158 c-20 -49 -83 -165 -121 -225 -19 -30 -34 -58 -34 -63 0 -6 -5 -10
-12 -10 -6 0 -8 -3 -5 -7 4 -3 2 -13 -5 -20 -7 -8 -33 -56 -60 -106 -26 -51
-48 -89 -48 -86 -1 24 48 156 81 219 35 64 208 330 215 330 2 0 -3 -15 -11
-32z m-498 -10 c-3 -8 -6 -5 -6 6 -1 11 2 17 5 13 3 -3 4 -12 1 -19z m-696
-38 c55 0 48 -15 -18 -40 -63 -23 -135 -22 -182 4 -23 13 -21 14 32 20 31 4
60 12 63 18 4 5 20 7 36 4 17 -3 48 -6 69 -6z m-281 -87 c13 -29 50 -133 50
-141 0 -4 -9 7 -47 57 -2 3 -13 -4 -26 -15 -12 -11 -36 -29 -54 -42 l-32 -22
26 50 c14 28 32 50 39 50 17 0 27 35 20 66 -9 33 8 30 24 -3z m-244 -173 c8
-28 32 -63 67 -99 29 -31 70 -77 90 -103 l38 -47 -31 -16 c-16 -8 -30 -17 -30
-19 0 -5 80 3 90 9 5 3 11 1 15 -5 3 -5 -1 -10 -9 -10 -8 0 -17 -9 -21 -19 -3
-10 -18 -22 -33 -26 -15 -3 -49 -20 -75 -37 -47 -30 -71 -32 -48 -4 10 12 8
13 -10 9 -14 -4 -20 -2 -16 4 4 6 1 13 -7 16 -33 13 -131 227 -145 318 -9 53
-5 65 15 48 10 -8 22 -6 46 9 18 11 37 19 42 18 5 -1 15 -22 22 -46z m504
-108 c0 -15 9 -35 20 -45 24 -21 26 -44 3 -69 -19 -21 -69 -26 -57 -5 5 7 1 6
-10 -3 -17 -13 -17 -14 0 -20 13 -5 4 -9 -26 -13 -25 -4 -58 -9 -75 -13 -29
-6 -29 -6 -10 10 19 15 19 16 -8 6 -42 -15 -67 -11 -32 5 l30 14 -27 1 c-15 0
-30 5 -33 10 -8 12 -2 12 53 0 38 -9 48 -8 78 11 19 11 34 23 34 26 0 2 -16
-5 -35 -17 -38 -23 -63 -21 -104 11 -28 22 -38 17 -57 -25 l-14 -31 2 30 c4
41 66 83 135 91 46 6 52 9 57 34 10 50 76 43 76 -8z m1540 41 c-1 -5 -10 -24
-21 -43 -11 -19 -18 -27 -15 -17 4 11 9 30 12 43 6 22 25 35 24 17z m86 -28
c3 -8 0 -21 -8 -28 -7 -8 -24 -29 -38 -47 -39 -51 -52 -62 -62 -52 -9 9 46
103 64 110 4 2 8 10 8 18 0 19 29 18 36 -1z m-808 -58 c3 -12 -4 -17 -22 -17
-32 0 -42 16 -19 29 23 13 37 9 41 -12z m889 -65 c-20 -22 -50 -92 -39 -92 4
0 13 15 20 33 16 42 51 84 60 71 4 -6 28 -38 55 -71 26 -34 47 -66 47 -73 0
-6 6 -13 13 -15 17 -7 17 -147 0 -152 -14 -5 -50 28 -146 134 -76 84 -82 117
-32 158 36 29 44 32 22 7z m-202 -52 c-20 -22 -37 -18 -28 8 9 23 26 33 37 22
6 -6 3 -17 -9 -30z m-1810 0 c-27 -12 -43 -12 -25 0 8 5 22 9 30 9 10 0 8 -3
-5 -9z m1769 -59 c-34 -53 -44 -65 -44 -55 0 5 7 20 16 32 8 12 12 22 8 22 -3
0 -1 6 5 13 6 8 8 17 4 21 -4 4 1 4 10 0 17 -6 17 -8 1 -33z m194 -92 c44 -49
49 -66 31 -117 -10 -28 -8 -33 30 -71 22 -22 43 -36 46 -31 3 6 15 15 27 21
22 12 19 1 -9 -32 -11 -13 -11 -22 -2 -43 14 -31 6 -44 -16 -26 -13 11 -15 7
-15 -28 0 -24 6 -45 16 -53 9 -7 19 -21 23 -31 6 -16 9 -16 35 -3 15 8 31 13
36 10 16 -10 42 23 47 60 8 65 20 66 74 5 41 -46 79 -119 79 -151 0 -5 -19
-13 -42 -20 -35 -9 -47 -8 -69 5 -24 14 -29 14 -58 0 -85 -42 -241 46 -241
137 0 33 37 74 54 60 7 -6 16 -8 19 -4 14 13 5 39 -24 72 -36 39 -38 38 -70
-56 -12 -37 -26 -63 -35 -63 -15 0 -48 60 -74 135 -9 27 -19 48 -22 45 -3 -3
-12 1 -21 9 -9 7 1 -18 24 -57 22 -38 41 -79 42 -90 0 -11 5 -18 11 -15 5 4 7
-1 3 -10 -9 -24 87 -145 116 -147 5 0 5 5 1 12 -4 7 -3 8 5 4 6 -4 9 -11 6
-15 -9 -15 20 -39 65 -54 97 -32 117 -36 178 -38 47 -2 62 -6 58 -15 -3 -7 -1
-16 3 -18 8 -5 22 -55 25 -86 0 -8 -15 -42 -35 -75 -29 -48 -43 -62 -71 -70
-47 -13 -57 -23 -18 -17 28 4 41 -10 21 -22 -5 -3 -11 -23 -13 -45 -3 -31 0
-37 12 -33 18 7 -30 -34 -85 -72 -45 -31 -29 -29 68 10 31 12 57 22 58 21 5
-12 6 -37 2 -33 -7 7 -33 -13 -33 -25 0 -5 5 -9 11 -9 5 0 7 5 4 10 -3 5 -1
10 4 10 43 0 -57 -73 -117 -86 l-37 -7 29 -6 29 -6 -40 -28 c-66 -46 -124 -59
-288 -64 -164 -6 -285 6 -405 38 -77 22 -190 88 -295 174 -86 71 -133 92 -262
120 -10 2 -36 12 -58 23 -22 11 -43 18 -47 15 -5 -2 -8 1 -8 6 0 6 -6 11 -12
11 -7 0 -38 18 -68 40 -30 22 -66 45 -80 51 l-25 12 25 7 c14 5 18 9 10 9 -13
1 -13 2 0 12 11 8 -2 9 -47 4 -73 -7 -71 -9 -47 86 12 47 15 95 12 190 l-4
128 76 -4 c41 -2 78 -4 81 -4 4 -1 9 -7 12 -15 4 -10 -1 -12 -16 -9 -20 4 -19
3 3 -9 14 -8 34 -12 44 -9 20 4 20 4 0 11 -10 4 10 7 46 7 51 0 58 -2 35 -8
-25 -6 -21 -7 21 -6 44 2 50 -1 52 -18 4 -39 -19 -231 -36 -300 l-17 -69 -50
1 -50 2 40 -10 c22 -5 43 -16 47 -23 4 -8 20 -17 34 -20 15 -4 36 -19 47 -33
49 -62 207 -96 244 -53 10 11 31 20 48 21 16 0 24 3 18 6 -7 2 -13 10 -13 16
0 6 -7 18 -16 28 -15 17 -13 18 23 24 78 12 83 12 83 -1 0 -19 -22 -64 -32
-64 -4 0 -8 -4 -8 -9 0 -16 61 -25 70 -11 7 12 41 11 135 -6 l30 -5 -27 14
c-14 8 -44 18 -65 21 -66 12 -66 11 -38 132 14 60 28 120 30 132 4 15 2 21 -5
17 -11 -7 -123 27 -150 45 -10 8 4 9 48 4 39 -4 62 -3 62 3 0 6 -30 25 -67 43
-62 30 -66 34 -43 41 37 11 109 10 129 -1 11 -5 22 -27 26 -52 6 -32 9 -37 12
-20 6 31 32 40 49 17 8 -10 14 -13 14 -7 0 7 10 12 23 12 12 0 29 4 36 9 10 7
0 8 -30 6 l-44 -4 48 11 c43 9 52 8 75 -9 15 -11 27 -26 27 -32 0 -7 11 -19
25 -26 40 -22 49 -16 10 6 -19 11 -26 17 -15 13 11 -3 28 -9 38 -12 14 -4 18
-11 13 -31 -3 -14 -8 -37 -11 -51 -3 -14 2 -6 12 18 9 23 22 42 28 42 20 0
242 -39 335 -59 78 -17 99 -25 118 -48 l24 -28 -16 32 c-18 36 -16 35 -151 63
-91 19 -145 40 -101 40 10 0 14 5 10 11 -4 8 0 9 15 4 16 -5 20 -3 15 9 -3 9
-14 16 -23 17 -12 0 -12 2 4 9 18 8 18 9 2 9 -10 1 -16 5 -13 9 3 5 0 9 -7 10
-7 1 -55 12 -107 25 -161 41 -420 159 -420 190 0 4 14 29 31 56 16 28 41 77
54 110 22 57 57 103 83 108 8 2 9 -4 4 -20 -10 -26 -4 -60 8 -52 5 3 -2 -27
-15 -66 -25 -73 -28 -105 -5 -50 7 17 18 35 26 42 11 9 11 5 4 -23 -15 -50
-11 -79 4 -33 24 71 43 108 50 96 4 -6 12 -11 17 -11 6 0 7 5 3 12 -4 7 -3 8
5 4 11 -7 11 -25 -5 -136 -4 -32 -3 -31 23 20 26 54 27 54 31 25 4 -27 6 -24
19 25 19 73 39 103 64 95 14 -5 19 -2 19 12 0 10 14 42 30 70 l30 53 43 -18
c23 -9 62 -38 85 -63z m174 -107 c14 -18 23 -32 19 -32 -4 0 -28 24 -52 53
-24 28 -68 79 -98 112 -30 33 -19 24 25 -20 43 -44 91 -95 106 -113z m188 135
c0 -4 -6 -23 -14 -42 -8 -18 -12 -36 -8 -39 3 -3 0 -6 -6 -6 -8 0 -12 21 -12
60 0 58 1 60 20 48 11 -7 20 -16 20 -21z m-2742 -47 c12 0 29 -11 38 -25 9
-14 21 -22 28 -18 6 3 8 2 3 -2 -4 -5 5 -17 20 -27 40 -26 6 -24 -57 4 -33 14
-58 34 -75 60 -31 47 -32 58 -2 30 13 -12 33 -22 45 -22z m626 -19 c24 -5 27
-8 15 -18 -11 -9 -23 -9 -52 0 -66 21 -38 35 37 18z m2085 -63 c0 -27 -2 -29
-8 -13 -5 11 -6 26 -4 33 8 21 13 13 12 -20z m-1679 -109 c18 -44 30 -83 26
-86 -7 -7 -73 131 -81 172 -6 28 -5 29 9 12 8 -10 29 -54 46 -98z m770 56 c-9
-24 -40 -87 -45 -93 -2 -2 -13 2 -25 8 l-22 12 25 26 c13 15 32 39 42 54 21
33 38 28 25 -7z m-1151 -81 c152 -22 195 -34 101 -29 -115 8 -173 6 -184 -5
-17 -17 -31 -11 -43 20 -14 36 -19 36 126 14z m947 -39 c23 -9 39 -26 48 -47
8 -18 13 -34 12 -35 -1 -2 -20 6 -41 17 -22 11 -49 20 -60 20 -31 0 -38 11
-17 27 15 11 13 12 -11 3 -16 -5 -38 -10 -50 -9 -17 0 -13 5 18 20 49 23 56
23 101 4z m-1116 -35 c27 -53 60 -158 60 -192 0 -16 3 -28 8 -28 4 0 7 -15 8
-33 1 -17 -1 -26 -3 -19 -3 6 -9 9 -14 6 -16 -9 -37 15 -45 49 -4 18 -15 38
-25 45 -23 16 -24 40 -3 63 15 16 15 24 2 84 -8 36 -14 65 -12 65 2 0 13 -18
24 -40z m424 14 c3 -9 6 -19 6 -22 0 -4 -60 -8 -133 -9 -72 -1 -153 -6 -179
-11 -35 -7 -48 -6 -52 3 -3 9 35 14 155 20 115 5 163 11 172 21 16 18 24 17
31 -2z m-896 -47 c-11 -22 -15 -23 -27 -10 -11 12 -10 15 8 20 12 3 21 10 21
16 0 6 3 8 6 5 3 -4 0 -17 -8 -31z m1561 -16 c12 -8 12 -14 -2 -43 -8 -18 -19
-46 -23 -63 -7 -28 -8 -26 -20 30 -7 33 -13 66 -13 73 -1 14 37 16 58 3z m784
-71 c25 -37 26 -41 8 -25 -13 11 -37 40 -54 65 -25 37 -26 41 -8 25 13 -11 37
-40 54 -65z m-919 -19 c16 -18 16 -19 -9 -25 -15 -4 -37 0 -55 9 -30 15 -42
32 -17 22 8 -3 20 -1 28 4 21 13 34 11 53 -10z m2053 -43 c-3 -8 -6 -5 -6 6
-1 11 2 17 5 13 3 -3 4 -12 1 -19z m-2797 -168 l25 -8 -25 0 c-14 0 -36 4 -50
8 l-25 8 25 0 c14 0 36 -4 50 -8z m57 -16 c-3 -3 -12 -4 -19 -1 -8 3 -5 6 6 6
11 1 17 -2 13 -5z m2470 -16 c-3 -8 -6 -5 -6 6 -1 11 2 17 5 13 3 -3 4 -12 1
-19z m-127 -13 c-16 -43 -40 -87 -93 -172 -47 -76 -67 -98 -67 -74 0 19 153
271 165 271 2 0 0 -11 -5 -25z m-1498 -15 l33 -20 -40 0 c-23 0 -46 -5 -53
-12 -9 -9 -12 -8 -12 4 0 15 25 48 35 48 3 0 19 -9 37 -20z m1239 -31 c-9 -23
-10 -23 -10 -2 -1 12 2 30 6 40 6 15 8 15 11 2 1 -8 -2 -26 -7 -40z m-2479
-71 c-5 -74 -22 -86 -22 -16 0 36 5 58 13 61 6 3 12 6 13 6 0 1 -1 -23 -4 -51z
m3458 -44 c0 -57 -2 -64 -20 -64 -18 0 -20 7 -20 58 0 55 13 87 32 76 4 -3 8
-34 8 -70z m-2975 -27 c11 -18 38 -38 71 -53 64 -28 71 -51 17 -56 -32 -3 -42
2 -60 26 -17 22 -23 25 -23 12 0 -9 11 -28 25 -41 13 -14 20 -25 15 -25 -6 0
-18 8 -28 18 -10 10 -27 22 -36 25 -13 5 -16 14 -13 30 5 17 -2 28 -26 46 -18
13 -24 21 -14 17 9 -3 25 -9 35 -12 9 -3 -4 8 -29 24 -25 16 -53 41 -62 56
l-18 26 64 -31 c40 -20 71 -43 82 -62z m2880 46 c3 -21 8 -46 10 -55 2 -12 -3
-18 -13 -18 -27 0 -67 24 -67 40 0 14 44 67 57 69 4 0 10 -16 13 -36z m-3211
18 c28 -6 49 -31 26 -31 -6 0 -24 -10 -39 -21 l-29 -21 -41 23 c-41 23 -52 43
-28 52 16 7 75 6 111 -2z m3056 -21 c0 -6 -35 -9 -87 -9 -65 1 -79 4 -53 9 54
11 140 11 140 0z m-2127 -17 c-7 -2 -19 -2 -25 0 -7 3 -2 5 12 5 14 0 19 -2
13 -5z m107 -4 c0 -6 -7 -9 -15 -5 -8 3 -14 0 -12 -7 2 -14 -112 -12 -126 2
-5 5 2 7 15 4 13 -2 43 1 68 6 63 12 70 12 70 0z m-566 -51 c72 3 87 -6 118
-68 16 -31 30 -46 47 -48 15 -2 21 0 17 7 -11 17 86 14 110 -3 11 -8 28 -32
38 -53 14 -32 26 -42 69 -58 29 -11 58 -19 64 -18 7 0 10 -4 6 -10 -4 -6 0 -8
11 -4 11 5 15 3 10 -5 -5 -7 -2 -9 7 -6 12 5 16 -4 18 -36 2 -38 1 -40 -13
-21 -8 11 -12 24 -8 29 3 5 -2 7 -11 3 -11 -4 -22 1 -29 13 -7 11 -17 20 -22
20 -4 0 -3 -7 4 -15 7 -8 9 -15 4 -15 -5 0 4 -9 20 -19 34 -22 53 -51 35 -51
-8 0 -7 -5 2 -17 10 -11 10 -14 2 -9 -28 16 -11 -4 29 -36 33 -26 40 -28 34
-13 -4 11 -9 25 -10 32 -1 7 -5 16 -9 19 -12 12 -8 26 6 18 10 -6 10 -4 0 7
-7 7 -13 19 -13 26 0 10 8 10 38 -3 66 -28 68 -27 13 7 -30 19 -57 40 -59 47
-3 11 0 12 16 3 10 -6 22 -8 25 -4 4 3 12 1 19 -4 7 -6 39 -18 70 -27 66 -19
72 -25 63 -67 l-7 -31 -19 21 c-21 23 -38 29 -21 9 5 -7 20 -38 33 -68 13 -30
34 -73 47 -95 l24 -40 -7 38 c-3 20 -3 37 0 37 9 0 133 -69 168 -93 16 -10 31
-17 34 -13 8 8 45 -13 39 -23 -7 -11 47 -49 80 -56 l29 -6 -30 15 c-20 10 -24
15 -12 15 9 1 26 -8 38 -20 11 -11 79 -54 150 -96 71 -41 134 -84 140 -95 19
-35 6 -158 -22 -209 -63 -114 -207 -133 -344 -46 -27 18 -53 33 -57 33 -5 1
-13 2 -19 3 -5 0 -7 5 -4 11 4 6 -1 7 -11 3 -13 -5 -15 -3 -9 7 5 8 4 11 -3 6
-14 -9 -143 55 -135 67 3 6 1 7 -6 3 -6 -4 -23 2 -37 13 -15 12 -37 21 -51 21
-25 0 -117 43 -128 60 -8 13 1 13 26 0 27 -15 69 9 111 62 42 53 71 99 61 96
-5 -2 -21 8 -36 22 -26 25 -74 52 -109 64 -12 3 -18 17 -19 38 l-2 33 -7 -35
c-4 -21 -8 -27 -9 -14 -1 14 -10 24 -26 28 -19 5 -32 -2 -63 -32 -42 -41 -56
-68 -42 -77 6 -4 10 1 10 11 0 14 2 15 17 3 15 -13 15 -12 5 8 -18 32 17 42
41 11 l19 -23 19 24 c10 13 19 18 19 12 0 -6 -19 -24 -41 -41 -35 -25 -45 -28
-57 -17 -13 11 -14 9 -1 -10 8 -13 17 -23 21 -23 5 0 8 -8 7 -17 0 -11 -3 -13
-6 -5 -2 6 -12 12 -20 12 -11 0 -7 -7 11 -21 14 -11 26 -26 26 -34 0 -7 7 -16
16 -19 11 -4 14 -13 10 -29 -4 -16 1 -28 15 -40 11 -10 17 -22 13 -28 -3 -6
-23 8 -45 33 -44 49 -50 68 -14 44 39 -25 30 -7 -16 32 -32 28 -39 40 -35 58
6 24 -4 30 -42 25 -6 -1 -44 10 -83 24 -79 28 -102 28 -39 0 22 -10 40 -22 40
-27 0 -4 24 -9 53 -10 l52 -2 -47 -3 c-26 -2 -69 -16 -98 -32 -44 -24 -58 -27
-90 -20 -71 16 -93 28 -85 47 4 9 8 24 9 33 2 24 57 75 88 83 14 3 34 9 45 13
16 6 16 5 5 -9 -11 -14 -10 -18 7 -27 11 -6 29 -11 41 -11 21 0 22 1 6 25 -19
30 -20 39 -3 32 10 -4 12 4 10 27 -2 17 0 25 3 18 5 -10 9 -9 20 5 12 17 14
17 45 0 44 -24 48 -14 5 11 -20 12 -38 17 -41 12 -3 -5 -12 -7 -20 -4 -8 4
-12 11 -8 17 3 6 1 7 -5 3 -14 -9 -15 4 -2 24 8 12 10 12 10 1 0 -8 3 -11 7
-8 3 4 12 2 19 -4 8 -7 14 -7 19 1 3 5 -2 10 -12 10 -15 0 -16 2 -3 11 12 8
10 9 -7 4 -13 -4 -23 -2 -23 4 0 6 -7 8 -15 5 -8 -4 -12 -10 -9 -15 6 -11 1
-11 -20 -3 -20 8 -21 34 -2 34 8 0 18 5 22 12 4 6 3 8 -4 4 -6 -3 -14 -1 -18
5 -5 9 2 10 24 6 20 -4 32 -2 32 4 0 6 5 7 10 4 6 -4 10 8 10 28 0 44 8 50 39
31 26 -15 26 -15 5 3 -25 22 -64 80 -46 70 7 -5 12 -3 12 7 0 8 -5 18 -11 21
-6 4 -14 17 -19 29 -8 19 -9 19 -9 2 -1 -14 -9 -8 -31 22 -44 61 -47 52 -4
-10 33 -49 35 -57 29 -101 -4 -32 -2 -54 6 -63 7 -8 7 -14 1 -14 -5 0 -12 6
-15 13 -2 7 -16 13 -29 14 -22 2 -24 -1 -20 -27 2 -15 -1 -45 -8 -64 -13 -41
-67 -99 -82 -90 -6 4 -9 1 -6 -6 9 -27 34 -33 61 -15 30 19 37 41 10 30 -15
-5 -14 -3 2 13 24 22 58 25 51 5 -3 -8 -1 -11 4 -8 22 13 8 -16 -21 -47 -28
-30 -29 -30 -10 -4 39 54 11 44 -46 -16 -15 -16 -30 -28 -34 -28 -9 0 -49 82
-49 100 0 6 -3 9 -7 7 -5 -3 -9 6 -9 20 -2 32 -10 39 -29 23 -18 -15 -20 -36
-2 -44 10 -5 10 -7 0 -12 -7 -3 -13 -14 -13 -25 0 -18 20 -25 59 -20 7 2 11
-4 9 -11 -3 -8 -16 -12 -31 -10 -21 3 -27 -1 -27 -15 0 -15 7 -18 48 -16 l47
3 -30 -14 c-16 -8 -50 -17 -74 -21 -41 -7 -44 -6 -38 14 3 14 0 21 -8 21 -8 0
-16 4 -19 9 -4 5 5 8 19 7 17 -2 26 3 31 16 3 11 3 22 0 25 -3 4 -6 2 -6 -4 0
-18 -78 -8 -108 14 -15 11 -27 25 -27 31 0 6 -4 14 -9 19 -5 5 -6 2 -1 -6 6
-10 4 -12 -4 -7 -7 5 -10 14 -7 22 3 8 0 11 -9 8 -17 -7 -15 -44 3 -44 7 0 10
-5 6 -12 -5 -7 -3 -8 6 -3 8 5 11 3 8 -5 -6 -18 -38 -21 -45 -4 -3 8 -9 11
-15 8 -5 -3 -19 2 -31 13 l-21 18 22 -31 c22 -32 52 -61 52 -50 0 4 14 -1 31
-9 23 -12 34 -13 44 -5 10 8 15 7 20 -9 3 -11 18 -24 33 -30 23 -8 24 -10 6
-10 -26 -1 -69 -37 -54 -46 5 -3 10 -13 10 -21 0 -26 -30 -15 -70 26 -22 22
-43 40 -48 40 -13 0 -45 50 -38 58 4 3 21 -8 39 -24 l32 -29 -25 28 c-47 54
-107 71 -146 42 -10 -8 -34 -15 -52 -15 -35 0 -92 24 -92 39 0 5 17 0 37 -10
21 -10 42 -19 48 -19 21 0 44 25 50 55 5 27 4 28 -5 7 -13 -30 -27 -20 -50 34
-19 43 -47 64 -104 78 -34 8 -78 36 -57 36 8 0 2 10 -13 21 -15 12 -41 49 -57
82 -34 70 -19 61 27 -16 17 -29 46 -63 65 -76 31 -21 41 -23 110 -17 51 3 80
1 87 -6 9 -9 12 -9 12 0 0 7 4 12 10 12 5 0 7 -7 4 -15 -4 -8 -2 -15 4 -15 11
0 11 -18 -1 -37 -6 -9 -3 -11 7 -7 9 3 16 10 16 16 0 5 5 6 10 3 6 -4 10 10
10 33 0 31 4 41 20 45 11 3 18 1 14 -4 -3 -5 2 -9 10 -9 9 0 16 -7 16 -15 0
-8 -7 -15 -15 -15 -12 0 -11 -8 7 -44 26 -53 47 -51 44 5 0 21 -3 39 -6 39
-10 0 -9 44 1 83 5 21 14 35 19 32 6 -4 7 1 3 11 -5 13 -3 15 7 9 8 -5 11 -4
6 3 -6 10 10 26 26 27 3 0 10 4 15 9 5 5 2 6 -6 1 -10 -6 -12 -4 -7 4 5 7 14
10 22 7 20 -8 7 17 -18 33 -25 15 -38 2 -32 -33 4 -19 4 -19 -4 -2 -5 11 -7
30 -4 43 5 29 56 73 85 73 17 1 14 5 -16 21 -22 11 -37 22 -35 24 1 2 22 0 45
-5 46 -8 70 6 59 35 -6 16 -64 55 -81 55 -5 -1 4 -8 20 -17 17 -9 25 -18 18
-20 -6 -2 -22 2 -35 10 -13 8 -40 20 -60 26 -20 7 -44 23 -53 37 l-16 25 41
-27 c36 -24 51 -28 104 -26z m-470 7 c94 13 127 7 175 -31 48 -37 56 -40 66
-24 11 17 33 -7 40 -43 4 -18 19 -45 34 -61 l26 -28 -32 16 c-18 9 -33 22 -34
29 0 9 -2 9 -6 0 -2 -7 -9 -13 -14 -13 -6 0 -8 4 -4 9 3 6 -3 15 -14 20 -31
17 -15 -21 19 -44 16 -11 26 -23 24 -27 -3 -4 3 -8 13 -8 11 0 24 -5 31 -12
14 -14 16 -52 2 -43 -11 7 -29 -8 -49 -40 -11 -19 -12 -19 -6 3 4 12 3 22 0
22 -9 0 -35 -27 -35 -37 0 -16 -67 -35 -87 -24 -38 21 -83 41 -83 37 0 -2 18
-18 40 -34 l40 -29 -25 -17 c-25 -16 -25 -16 -35 11 -18 49 -26 58 -62 61 -22
2 -44 13 -59 28 l-24 26 27 -7 c19 -5 29 -2 36 10 8 16 11 16 39 1 17 -8 34
-12 38 -8 5 4 5 -1 2 -10 -5 -15 0 -18 28 -18 28 0 35 -4 35 -20 0 -11 4 -20
9 -20 17 0 23 20 12 34 -14 17 -4 46 14 40 9 -4 12 0 8 14 -4 17 -13 19 -65
18 -48 -1 -63 3 -73 18 -8 10 -34 22 -62 27 -52 10 -67 21 -78 59 -7 23 -4 22
32 -12 37 -37 73 -50 73 -27 0 5 4 7 10 4 6 -3 7 1 4 9 -3 9 -11 13 -17 9 -7
-4 -8 0 -4 11 4 10 7 24 7 32 0 9 5 12 13 8 9 -5 9 -4 1 5 -6 7 -29 19 -50 26
-22 8 -38 18 -37 24 2 5 -6 13 -17 16 -11 4 -20 11 -20 16 0 6 9 5 22 -2 13
-7 40 -9 72 -4z m2794 6 c8 -1 12 -11 10 -28 -3 -24 -11 -30 -77 -50 -41 -12
-77 -21 -79 -18 -7 7 38 74 61 90 12 8 33 13 47 11 14 -2 31 -5 38 -5z m-188
-17 c0 -7 -110 -57 -116 -52 -2 3 5 17 17 31 16 21 29 27 60 27 21 0 39 -2 39
-6z m-2750 -50 c0 -7 -6 -17 -14 -21 -13 -7 -76 -132 -76 -150 0 -18 -44 -90
-71 -118 -17 -16 -48 -51 -71 -78 -68 -79 -56 -44 19 55 88 117 104 144 139
243 15 44 32 83 38 87 13 9 36 -2 36 -18z m3110 10 c0 -2 -12 -4 -26 -4 -14 0
-23 4 -20 9 6 8 46 4 46 -5z m-404 -29 c-17 -27 -60 -49 -80 -42 -14 6 -138
-61 -236 -127 -83 -55 -77 -38 10 29 59 45 309 180 317 171 3 -3 -2 -17 -11
-31z m334 31 c0 -2 -7 -7 -16 -10 -8 -3 -12 -2 -9 4 6 10 25 14 25 6z m-275
-36 c-9 -16 -17 -30 -19 -30 -3 0 -12 -3 -22 -7 -11 -4 -5 8 16 30 40 45 45
46 25 7z m233 23 c0 -5 2 -16 7 -26 4 -10 2 -24 -6 -35 -13 -15 -12 -16 4 -3
9 7 17 21 17 31 0 10 7 21 16 24 26 10 94 7 94 -5 0 -6 -26 -38 -57 -72 l-57
-62 63 60 c35 33 61 55 58 49 -3 -6 -9 -26 -12 -45 -3 -20 -16 -42 -30 -52
-14 -10 -22 -23 -19 -28 3 -5 0 -8 -8 -7 -7 2 -12 -3 -10 -10 2 -13 -69 -62
-148 -102 -25 -12 -48 -28 -52 -34 -4 -6 -8 -7 -8 -2 0 5 -10 1 -22 -10 -13
-12 -18 -13 -13 -4 7 12 6 13 -6 3 -19 -15 -136 -54 -179 -59 -19 -2 -47 -6
-62 -8 -20 -2 -28 1 -28 12 0 13 -17 14 -122 8 l-123 -7 34 35 c24 25 41 34
53 30 10 -3 49 -2 86 2 37 4 58 10 48 12 -23 5 -46 26 -46 42 0 6 -10 14 -22
19 -20 7 -17 11 33 42 88 57 161 96 215 118 l52 20 -5 -22 c-4 -21 -4 -21 11
-3 8 10 17 22 18 27 3 7 191 67 216 68 6 1 11 -2 10 -6z m-2438 -98 c0 -19
-27 -26 -40 -10 -8 10 -7 16 7 23 20 12 33 7 33 -13z m-487 -7 c15 -6 26 -12
24 -14 -2 -3 -17 0 -32 6 -37 14 -43 5 -16 -24 21 -22 21 -24 5 -22 -19 3 -44
39 -44 65 0 9 6 11 18 6 9 -4 30 -12 45 -17z m3167 -3 l25 -14 -58 -25 c-32
-14 -86 -40 -120 -56 l-62 -30 40 32 c22 18 56 50 75 71 36 39 60 45 100 22z
m217 -1 c5 -15 -21 -53 -31 -43 -7 7 6 59 15 59 6 0 12 -7 16 -16z m-2927
-112 c0 -5 -6 -15 -14 -21 -11 -10 -15 -8 -18 6 -2 10 -2 26 0 35 4 15 6 15
18 3 8 -7 14 -18 14 -23z m2660 -34 c0 -4 -8 -8 -18 -8 -26 0 -56 35 -48 56 6
15 10 14 36 -11 17 -16 30 -32 30 -37z m-2719 3 c-7 -12 -16 -21 -21 -21 -6 0
-19 -9 -30 -20 -24 -24 -43 -25 -61 -3 -13 15 -12 15 7 3 20 -12 25 -10 58 20
20 19 36 41 36 49 0 11 3 12 11 4 8 -8 8 -17 0 -32z m2625 -3 c18 -20 18 -21
1 -15 -10 4 -23 7 -28 7 -5 0 -9 7 -9 15 0 21 14 19 36 -7z m-2895 -15 c8 -9
9 -14 3 -10 -7 4 -14 -2 -17 -13 -5 -20 -6 -20 -40 -3 -32 16 -33 19 -14 26
11 4 29 5 40 1 13 -4 17 -2 13 5 -11 17 0 13 15 -6z m299 -9 c0 -8 -8 -14 -17
-14 -15 0 -16 -2 -3 -10 8 -5 11 -12 7 -17 -9 -8 -27 15 -27 35 0 6 7 12 16
12 9 0 12 5 8 12 -4 7 -3 8 4 4 7 -4 12 -14 12 -22z m-299 -37 c-10 -9 -11 -8
-5 6 3 10 9 15 12 12 3 -3 0 -11 -7 -18z m2079 8 c4 3 6 -4 3 -15 -3 -11 -13
-20 -22 -20 -27 0 -33 12 -13 30 9 10 19 13 20 8 2 -4 7 -6 12 -3z m-1944 -27
c18 -20 18 -21 1 -15 -10 4 -31 7 -45 7 -26 1 -26 1 -8 15 26 19 29 19 52 -7z
m2688 -17 c-2 -3 -12 3 -22 13 -16 17 -16 18 5 5 12 -7 20 -15 17 -18z m304 1
c6 -18 -15 -14 -22 4 -4 10 -1 14 6 12 6 -2 14 -10 16 -16z m-251 -18 l58 5
-52 -24 c-64 -30 -169 -51 -297 -61 -85 -6 -103 -10 -123 -30 -25 -25 -32 -10
-13 26 11 20 83 45 100 35 18 -11 147 -8 185 5 58 18 67 28 53 54 -11 21 -11
21 10 2 18 -15 31 -17 79 -12z m121 -35 c12 -18 11 -24 -3 -38 -15 -15 -18
-14 -41 12 -13 16 -22 33 -19 38 11 17 50 9 63 -12z m153 -46 c19 -27 43 -66
53 -88 51 -106 51 -103 8 -55 -80 90 -131 167 -119 179 17 17 21 14 58 -36z
m-3532 23 c17 -20 2 -48 -23 -44 -24 3 -34 37 -14 49 18 12 24 11 37 -5z
m2621 -29 c8 -7 22 -26 31 -42 12 -24 21 -30 44 -28 15 1 39 -7 53 -17 28 -23
91 -26 181 -10 31 5 92 14 136 20 44 6 91 14 105 16 14 3 3 -5 -25 -17 -146
-62 -451 -66 -521 -8 -8 6 -14 24 -14 39 0 34 -14 40 -86 40 -34 0 -53 4 -49
10 9 14 127 12 145 -3z m-2443 -15 c-9 -10 -22 -32 -28 -50 -11 -33 -73 -78
-138 -100 -47 -16 -51 -7 -8 18 38 23 51 43 48 76 -3 31 27 57 58 51 14 -3 37
1 51 8 33 19 36 18 17 -3z m278 -17 c0 -27 -4 -31 -34 -35 -46 -7 -49 -25 -9
-50 28 -18 43 -20 103 -15 64 5 72 3 95 -18 14 -12 36 -30 49 -39 l24 -17 -24
-10 c-13 -5 -57 -23 -98 -40 l-73 -31 -28 30 c-15 17 -33 30 -38 30 -10 0 -87
120 -109 172 -18 40 13 60 87 56 54 -3 55 -4 55 -33z m3019 -95 c7 -8 20 -28
30 -44 l19 -29 -29 20 c-35 26 -65 60 -99 113 -30 47 -31 57 -8 62 13 2 26
-12 46 -52 16 -30 34 -62 41 -70z m-364 70 c-14 -4 -34 -8 -45 -9 -16 -1 -17
1 -5 9 8 5 29 9 45 9 29 -1 29 -1 5 -9z m-2419 -47 c13 -16 12 -17 -3 -4 -10
7 -18 15 -18 17 0 8 8 3 21 -13z m88 -6 c11 3 24 -5 35 -21 9 -14 12 -26 7
-26 -6 0 -15 9 -21 21 -9 16 -14 18 -26 8 -9 -8 -14 -8 -14 -1 0 6 -6 9 -13 6
-8 -3 -20 3 -28 12 -13 16 -12 16 9 5 19 -10 22 -9 23 6 1 15 2 16 6 2 2 -10
11 -15 22 -12z m-528 -64 c13 -16 12 -17 -3 -4 -10 7 -18 15 -18 17 0 8 8 3
21 -13z m124 -61 c19 4 25 1 25 -13 0 -10 -5 -21 -11 -24 -6 -4 -8 -14 -4 -24
3 -9 -7 -1 -22 17 -15 19 -44 47 -63 63 l-35 30 42 -27 c28 -17 51 -25 68 -22z
m555 17 c-41 -34 -106 -57 -121 -42 -6 6 -1 19 15 38 20 23 30 27 58 22 19 -3
41 -1 49 4 32 20 32 6 -1 -22z m-480 -58 c0 -18 44 -64 98 -100 17 -12 32 -31
32 -42 0 -23 -9 -24 -36 -4 -12 8 -23 12 -26 10 -3 -3 -13 11 -24 30 -19 36
-38 49 -27 18 6 -16 5 -16 -10 -4 -9 7 -14 17 -11 22 3 5 0 10 -5 10 -37 5
-50 16 -46 39 2 10 9 28 15 40 9 17 14 19 26 9 8 -6 14 -19 14 -28z m1012 24
c57 -11 65 -28 26 -58 -36 -28 -80 -47 -106 -47 -14 0 -15 2 -3 9 12 8 9 11
-12 16 -40 10 -45 43 -11 71 17 14 38 22 49 20 11 -3 37 -8 57 -11z m-1062
-80 c7 -8 16 -13 20 -10 4 2 13 -7 20 -21 8 -13 19 -23 26 -20 7 3 18 -3 26
-12 11 -15 11 -16 -2 -7 -9 6 -7 2 3 -7 11 -10 23 -16 27 -13 5 3 12 0 16 -6
5 -8 3 -9 -7 -4 -12 8 -12 6 0 -8 15 -19 36 -23 25 -5 -4 6 -3 8 4 4 17 -11 6
-73 -23 -122 -61 -104 -128 -154 -205 -154 -33 0 -47 9 -116 75 -44 41 -85 75
-91 75 -22 0 -14 27 13 45 14 9 44 23 67 31 51 18 74 38 99 89 24 47 57 85 74
85 6 0 17 -7 24 -15z m-202 -41 c2 -11 -4 -26 -12 -33 -31 -26 -71 14 -45 45
17 21 53 14 57 -12z m972 11 c14 -8 21 -14 15 -14 -5 0 -21 6 -35 14 -14 8
-20 14 -15 14 6 0 21 -6 35 -14z m-23 -21 c49 -24 93 -75 93 -108 0 -8 7 -19
15 -26 8 -7 13 -16 10 -20 -3 -4 2 -24 10 -44 20 -47 19 -110 -1 -131 -22 -21
-71 -41 -140 -55 -42 -9 -67 -21 -90 -44 -28 -28 -132 -81 -142 -72 -2 2 5 19
15 38 14 26 18 56 18 136 1 60 -3 102 -9 102 -5 0 -1 7 10 15 16 13 16 14 2 9
-14 -5 -18 -1 -18 17 -1 24 -1 23 -16 -3 -10 -20 -22 -28 -42 -28 -17 0 -22 3
-15 8 8 5 -2 8 -23 8 -30 0 -44 8 -75 42 -22 22 -39 46 -39 52 0 14 56 6 76
-11 12 -10 13 -9 9 4 -7 16 -35 27 -72 27 -15 0 -23 6 -23 16 0 14 7 15 41 10
24 -4 38 -3 35 3 -9 14 16 20 39 8 14 -7 20 -6 23 3 2 6 32 25 66 41 82 39
169 40 243 3z m-1337 12 c0 -9 -81 -68 -86 -63 -3 3 14 19 38 36 46 32 48 33
48 27z m118 -104 c2 -18 -7 -51 -21 -79 -26 -51 -72 -112 -61 -80 4 11 -8 40
-34 80 -23 34 -45 74 -51 90 -10 25 -8 29 31 57 l41 30 46 -34 c34 -26 47 -42
49 -64z m1441 24 c26 -27 32 -40 27 -59 -5 -20 -1 -26 15 -30 18 -5 21 -11 16
-36 -4 -17 -3 -31 2 -31 15 0 23 -33 10 -41 -7 -4 -8 -12 -3 -20 6 -10 3 -10
-12 1 -28 22 -34 33 -29 49 3 7 0 20 -6 27 -6 8 -9 20 -6 28 3 8 -3 22 -14 32
-10 9 -19 22 -19 28 0 6 5 5 12 -2 18 -18 28 -14 27 11 0 12 -3 17 -5 10 -6
-13 -64 40 -64 57 0 18 16 10 49 -24z m1176 24 c-3 -5 -13 -10 -21 -10 -8 0
-12 5 -9 10 3 6 13 10 21 10 8 0 12 -4 9 -10z m-35 -35 c0 -4 -9 -5 -20 -2
-11 3 -25 -2 -32 -11 -11 -13 -11 -15 2 -10 9 3 24 0 35 -8 10 -8 13 -14 6
-14 -7 0 -9 -5 -6 -10 5 -8 11 -7 20 0 8 7 18 9 24 6 12 -8 72 24 89 47 7 9
18 17 23 17 16 0 -31 -56 -59 -71 -14 -8 -31 -27 -38 -44 -27 -60 -61 -86
-139 -104 -27 -7 -74 -24 -103 -38 -31 -15 -57 -22 -61 -17 -16 17 66 166 117
211 26 23 51 42 55 43 5 0 20 9 34 20 21 17 27 17 39 5 8 -7 14 -17 14 -20z
m1099 -49 c-3 -3 -11 5 -18 17 -13 21 -12 21 5 5 10 -10 16 -20 13 -22z m-369
-6 c3 -3 22 -18 44 -34 35 -26 37 -27 26 -6 -19 35 95 -56 155 -125 76 -86 74
-91 -12 -23 -44 35 -116 91 -160 126 -45 35 -84 70 -87 79 -6 14 -4 14 11 2
10 -8 20 -16 23 -19z m-162 10 c7 0 10 -4 7 -10 -3 -5 -3 -10 2 -10 4 0 29
-20 55 -43 36 -34 64 -78 123 -198 43 -85 75 -152 72 -149 -2 3 -29 37 -59 77
-29 39 -95 117 -147 173 -82 88 -91 103 -80 118 11 14 11 15 -1 5 -17 -15 -34
-17 -25 -3 3 6 1 10 -6 10 -8 0 -9 3 0 13 6 8 7 17 3 22 -4 4 4 5 18 2 14 -4
31 -7 38 -7z m582 -57 c0 -7 5 -13 10 -13 6 0 10 -5 10 -12 0 -6 -11 -1 -25
12 -13 12 -22 27 -19 31 3 5 0 9 -5 9 -6 0 -11 5 -11 12 0 6 9 3 20 -7 11 -10
20 -24 20 -32z m-1070 -3 c0 -5 -4 -10 -9 -10 -6 0 -13 5 -16 10 -3 6 1 10 9
10 9 0 16 -4 16 -10z m-1981 -81 l8 -37 -31 9 c-17 5 -32 9 -33 9 -2 0 -3 11
-3 25 0 14 8 29 20 35 11 6 21 18 21 28 1 9 4 6 6 -8 3 -14 8 -41 12 -61z
m2428 25 c3 -8 1 -20 -5 -26 -15 -15 -43 8 -35 28 7 19 32 18 40 -2z m-1574
-89 l-8 -26 -24 23 c-25 23 -13 40 14 18 11 -9 12 -7 8 12 -5 18 -3 21 7 11 8
-8 10 -19 3 -38z m-1669 14 c-10 -12 -32 -27 -49 -35 -18 -8 -22 -9 -11 -2 10
7 31 23 45 35 33 28 40 29 15 2z m1118 -51 c8 -12 9 -27 2 -55 -8 -32 -13 -37
-32 -35 -13 2 -32 -4 -43 -14 -19 -17 -19 -17 0 27 11 24 23 68 27 98 l7 53
13 -28 c8 -16 19 -37 26 -46z m-77 -5 c-14 -61 -40 -96 -79 -107 -18 -5 -18
-4 -3 11 8 9 26 48 39 88 20 64 24 70 36 54 7 -11 10 -30 7 -46z m-785 31 c0
-18 -22 -42 -34 -38 -12 5 -12 9 2 24 17 18 32 25 32 14z m1447 -29 c9 -25 -4
-29 -17 -6 -7 15 -7 21 0 21 6 0 13 -7 17 -15z m108 -85 c0 -8 -8 -16 -17 -18
-13 -2 -18 3 -18 18 0 15 5 20 18 18 9 -2 17 -10 17 -18z m682 -36 c3 -8 1
-20 -6 -27 -14 -14 -47 15 -37 32 10 16 36 13 43 -5z"/>
<path d="M1496 3593 c-6 -14 -5 -15 5 -6 7 7 10 15 7 18 -3 3 -9 -2 -12 -12z"/>
<path d="M1760 3096 c0 -2 8 -10 18 -17 15 -13 16 -12 3 4 -13 16 -21 21 -21
13z"/>
<path d="M1152 2698 c7 -4 40 -7 73 -7 73 1 62 6 -23 11 -34 3 -57 1 -50 -4z"/>
<path d="M1101 2671 c-10 -6 1 -8 30 -4 24 3 46 7 48 9 10 9 -65 3 -78 -5z"/>
<path d="M1233 2663 c15 -2 37 -2 50 0 12 2 0 4 -28 4 -27 0 -38 -2 -22 -4z"/>
<path d="M960 2652 c0 -4 16 -6 35 -4 19 2 35 6 35 8 0 2 -16 4 -35 4 -19 0
-35 -4 -35 -8z"/>
<path d="M408 2459 c-10 -10 -13 -19 -7 -19 5 0 8 -4 4 -9 -3 -5 8 -3 25 5 35
18 39 24 10 17 -16 -4 -19 -2 -14 11 8 20 3 19 -18 -5z"/>
<path d="M846 2607 c3 -10 9 -15 12 -12 3 3 0 11 -7 18 -10 9 -11 8 -5 -6z"/>
<path d="M2650 2306 c0 -3 9 -10 20 -16 11 -6 20 -8 20 -6 0 3 -9 10 -20 16
-11 6 -20 8 -20 6z"/>
<path d="M1045 2020 c3 -5 16 -10 28 -9 21 0 21 1 2 9 -28 12 -37 12 -30 0z"/>
<path d="M1110 1962 c0 -5 7 -17 16 -28 15 -18 15 -18 5 2 -6 12 -7 24 -4 28
3 3 1 6 -5 6 -7 0 -12 -4 -12 -8z"/>
<path d="M1941 1824 c0 -11 3 -14 6 -6 3 7 2 16 -1 19 -3 4 -6 -2 -5 -13z"/>
<path d="M1921 1694 c0 -11 3 -14 6 -6 3 7 2 16 -1 19 -3 4 -6 -2 -5 -13z"/>
<path d="M2126 1675 c-3 -9 -6 -22 -5 -28 0 -7 5 -1 10 12 5 13 8 26 5 28 -2
2 -6 -3 -10 -12z"/>
<path d="M1160 1620 c14 -4 36 -8 50 -8 22 0 22 1 -5 8 -16 4 -39 8 -50 8 -16
0 -15 -2 5 -8z"/>
<path d="M2691 1590 c-1 -41 -15 -63 -79 -126 -35 -34 -39 -41 -16 -25 71 47
111 112 101 162 -3 17 -5 14 -6 -11z"/>
<path d="M2251 1594 c0 -11 3 -14 6 -6 3 7 2 16 -1 19 -3 4 -6 -2 -5 -13z"/>
<path d="M2000 1562 c0 -6 -8 -13 -17 -15 -16 -4 -16 -5 -1 -6 18 -1 34 16 24
26 -3 4 -6 1 -6 -5z"/>
<path d="M2061 1478 c0 -10 -7 -18 -13 -18 -19 -1 134 -50 155 -50 15 0 16 2
5 14 -7 7 -18 12 -24 9 -20 -8 -113 28 -117 45 -4 15 -5 15 -6 0z"/>
<path d="M2008 1463 c7 -3 16 -2 19 1 4 3 -2 6 -13 5 -11 0 -14 -3 -6 -6z"/>
<path d="M2250 1420 c8 -5 24 -10 34 -10 26 0 18 6 -19 14 -22 5 -26 4 -15 -4z"/>
<path d="M2523 1407 c-18 -6 -33 -15 -33 -20 0 -4 -17 -6 -37 -3 l-38 6 32
-10 c27 -9 40 -7 73 10 22 11 40 23 40 25 0 3 -1 4 -2 4 -2 -1 -18 -7 -35 -12z"/>
<path d="M2328 1403 c7 -3 16 -2 19 1 4 3 -2 6 -13 5 -11 0 -14 -3 -6 -6z"/>
<path d="M2378 1393 c6 -2 18 -2 25 0 6 3 1 5 -13 5 -14 0 -19 -2 -12 -5z"/>
<path d="M1160 1319 c-24 -6 -24 -6 5 -10 24 -3 30 -8 28 -26 -2 -14 3 -23 12
-23 7 0 16 -4 19 -9 4 -5 -5 -8 -19 -6 -18 1 -25 -3 -25 -15 0 -12 6 -16 23
-13 26 5 113 -39 110 -56 -2 -6 2 -10 9 -8 7 1 12 -4 13 -11 0 -7 5 -16 12
-20 6 -4 10 -20 9 -35 -2 -17 1 -27 10 -27 8 0 11 6 8 15 -4 8 -1 15 5 15 6 0
11 -4 11 -10 0 -5 6 -10 14 -10 10 0 6 15 -13 55 -16 33 -31 53 -38 50 -7 -2
-13 2 -13 9 0 18 27 28 34 13 3 -8 5 -8 5 -1 1 6 -9 19 -21 30 -19 15 -20 16
-9 2 15 -21 9 -23 -21 -7 -13 7 -18 7 -14 1 3 -6 2 -13 -4 -17 -5 -3 -10 0
-10 8 0 10 -7 13 -19 10 -12 -3 -24 3 -35 18 -20 29 -21 45 -1 29 8 -7 12 -17
8 -23 -3 -6 -1 -7 5 -3 7 4 12 2 12 -5 0 -7 3 -9 6 -6 4 4 1 14 -7 24 -12 15
-12 16 6 10 20 -7 20 -7 1 8 -11 8 -27 15 -35 15 -11 0 -12 3 -4 8 17 11 -48
29 -77 21z m173 -124 c-3 -9 -8 -14 -10 -11 -3 3 -2 9 2 15 9 16 15 13 8 -4z
m37 -44 c0 -5 -7 -12 -16 -15 -14 -5 -15 -4 -4 9 14 17 20 19 20 6z"/>
<path d="M1128 1269 c-10 -6 -18 -7 -18 -4 0 4 -7 -1 -16 -9 -8 -9 -20 -14
-25 -11 -5 4 -9 3 -9 -2 1 -20 18 -28 58 -28 34 0 39 2 27 11 -11 8 -12 13 -4
16 6 2 10 11 8 20 -3 13 -8 14 -21 7z"/>
<path d="M1118 1193 c-29 -7 -20 -30 14 -37 32 -6 33 -16 2 -20 -10 -2 -20 -9
-22 -17 -3 -12 -2 -12 6 0 7 9 11 10 13 2 3 -7 12 -9 22 -6 22 9 22 45 0 45
-13 0 -14 3 -5 12 24 24 13 32 -30 21z"/>
<path d="M1150 1100 c-12 -7 -12 -14 -4 -27 16 -25 35 -22 46 6 8 22 7 22 -9
10 -9 -8 -14 -9 -10 -2 10 16 -5 24 -23 13z"/>
<path d="M1292 1097 c-6 -7 -9 -23 -6 -34 5 -17 10 -20 27 -14 20 8 34 41 16
41 -5 0 -9 -8 -9 -17 -1 -17 -1 -17 -11 0 -5 9 -7 22 -4 27 9 14 -1 12 -13 -3z"/>
<path d="M1545 1081 c-3 -5 -2 -12 3 -15 5 -3 9 1 9 9 0 17 -3 19 -12 6z"/>
<path d="M1223 1063 c-7 -2 -13 -12 -13 -20 0 -12 -3 -13 -13 -4 -10 8 -19 7
-33 -4 -10 -8 -30 -15 -44 -15 -35 0 -52 -14 -44 -33 3 -9 10 -14 16 -11 5 3
7 12 4 20 -8 21 7 17 21 -5 10 -16 9 -20 -5 -24 -9 -2 -2 -4 16 -4 37 0 39 4
15 23 -16 12 -16 13 9 14 20 0 26 -4 22 -15 -4 -9 0 -15 9 -15 20 0 35 22 18
28 -15 5 5 32 25 32 8 0 11 6 8 15 -4 8 -1 15 5 15 6 0 11 -7 11 -16 0 -8 5
-12 10 -9 6 3 10 13 10 21 0 14 -23 17 -47 7z"/>
<path d="M1699 1048 c-1 -7 -1 -17 0 -22 1 -5 -5 -6 -14 -2 -8 3 -23 9 -32 12
-10 4 2 -14 26 -39 47 -49 79 -62 100 -40 11 12 10 18 -6 35 -10 11 -17 22
-15 24 1 2 -1 4 -4 3 -3 0 -14 9 -23 20 -21 24 -30 26 -32 9z"/>
<path d="M1245 1016 c-29 -13 -30 -13 -7 -20 23 -8 52 7 52 25 0 12 -9 11 -45
-5z"/>
<path d="M617 1009 c7 -7 15 -10 18 -7 3 3 -2 9 -12 12 -14 6 -15 5 -6 -5z"/>
<path d="M658 993 c7 -3 16 -2 19 1 4 3 -2 6 -13 5 -11 0 -14 -3 -6 -6z"/>
<path d="M1007 993 c-12 -11 -8 -41 6 -46 20 -7 47 12 47 33 0 14 -7 20 -23
20 -13 0 -27 -3 -30 -7z m33 -18 c0 -8 -4 -15 -10 -15 -5 0 -10 7 -10 15 0 8
5 15 10 15 6 0 10 -7 10 -15z"/>
<path d="M725 978 c11 -6 27 -16 35 -22 9 -6 5 -1 -8 12 -13 12 -28 22 -35 22
-7 0 -3 -6 8 -12z"/>
<path d="M1200 960 c-8 -5 -11 -12 -7 -16 4 -4 13 -2 19 4 15 15 7 24 -12 12z"/>
<path d="M1230 960 c0 -5 5 -10 11 -10 5 0 7 5 4 10 -3 6 -8 10 -11 10 -2 0
-4 -4 -4 -10z"/>
<path d="M1790 931 c0 -5 7 -15 17 -22 15 -13 15 -12 4 9 -12 23 -21 28 -21
13z"/>
<path d="M1570 916 c0 -2 8 -10 18 -17 15 -13 16 -12 3 4 -13 16 -21 21 -21
13z"/>
<path d="M1554 824 c-10 -8 -13 -12 -5 -8 9 4 12 2 9 -7 -3 -8 -12 -13 -20
-11 -9 1 -21 -5 -28 -13 -10 -12 -10 -15 1 -16 8 -1 3 -5 -11 -9 -24 -8 -24
-8 -2 -9 17 -1 22 -7 23 -28 0 -25 1 -26 9 -8 4 11 5 32 3 48 -4 21 -2 26 9
22 9 -4 19 4 27 21 15 33 10 38 -15 18z"/>
<path d="M1862 820 c0 -14 2 -19 5 -12 2 6 2 18 0 25 -3 6 -5 1 -5 -13z"/>
<path d="M1460 800 c6 -11 16 -20 22 -20 6 0 3 9 -7 20 -10 11 -20 20 -22 20
-2 0 1 -9 7 -20z"/>
<path d="M2067 809 c7 -7 15 -10 18 -7 3 3 -2 9 -12 12 -14 6 -15 5 -6 -5z"/>
<path d="M1788 760 c41 -25 54 -25 23 0 -13 11 -31 20 -40 20 -9 0 -3 -8 17
-20z"/>
<path d="M1352 678 c1 -7 -3 -23 -10 -35 -16 -29 -5 -29 53 -1 44 22 45 22 23
35 -30 16 -70 17 -66 1z"/>
<path d="M647 1430 c-47 -8 -75 -20 -47 -20 7 0 29 -12 48 -26 48 -37 101 -32
102 9 0 10 -38 47 -47 46 -5 -1 -30 -5 -56 -9z m74 -17 c13 -17 13 -17 -6 -3
-11 8 -22 16 -24 17 -2 2 0 3 6 3 6 0 17 -8 24 -17z m-66 -3 c-3 -5 -12 -7
-20 -3 -21 7 -19 13 6 13 11 0 18 -4 14 -10z"/>
<path d="M799 1313 c-5 -14 -8 -31 -5 -37 2 -6 5 -3 5 7 1 10 5 16 10 13 5 -3
8 5 7 19 -1 32 -4 31 -17 -2z"/>
<path d="M880 1190 c-9 -6 -10 -10 -3 -10 6 0 15 5 18 10 8 12 4 12 -15 0z"/>
<path d="M3420 1160 c-19 -11 -30 -19 -25 -19 6 0 26 8 45 19 19 11 31 19 25
19 -5 0 -26 -8 -45 -19z"/>
<path d="M3110 1015 c-16 -19 -1 -19 24 0 16 12 17 15 4 15 -8 0 -21 -7 -28
-15z"/>
<path d="M3028 1013 c6 -2 18 -2 25 0 6 3 1 5 -13 5 -14 0 -19 -2 -12 -5z"/>
<path d="M640 892 c0 -16 27 -45 33 -35 3 5 -3 17 -14 26 -10 9 -19 13 -19 9z"/>
<path d="M1121 481 c-9 -6 -5 -10 13 -15 15 -4 24 -11 21 -16 -3 -6 -2 -10 4
-10 6 0 17 -12 25 -27 19 -35 21 -21 2 15 -20 39 -49 63 -65 53z"/>
<path d="M1429 409 l-24 -20 30 17 c39 24 40 24 28 24 -6 0 -21 -9 -34 -21z"/>
<path d="M1313 365 c-3 -9 -3 -19 1 -22 3 -4 6 1 6 10 0 8 8 18 18 20 16 4 16
5 -1 6 -10 0 -20 -6 -24 -14z"/>
<path d="M1686 371 c-3 -5 1 -14 9 -21 12 -10 15 -10 15 3 0 19 -16 31 -24 18z"/>
<path d="M1690 305 c0 -2 7 -8 15 -15 12 -10 15 -10 15 2 0 8 -7 15 -15 15 -8
0 -15 -1 -15 -2z"/>
<path d="M2100 3975 c-25 -13 -40 -24 -35 -24 6 0 30 11 55 24 25 13 41 24 35
24 -5 0 -30 -11 -55 -24z"/>
<path d="M3096 2447 c3 -10 9 -15 12 -12 3 3 0 11 -7 18 -10 9 -11 8 -5 -6z"/>
<path d="M10 2180 c-6 -12 -10 -31 -8 -43 3 -21 4 -20 25 9 19 27 21 34 9 44
-12 9 -17 7 -26 -10z"/>
<path d="M70 2156 c0 -8 5 -18 10 -21 6 -3 10 1 10 9 0 8 -4 18 -10 21 -5 3
-10 -1 -10 -9z"/>
<path d="M32 2108 c6 -18 28 -21 28 -4 0 9 -7 16 -16 16 -9 0 -14 -5 -12 -12z"/>
<path d="M210 1966 c0 -8 -19 -25 -42 -38 -42 -23 -68 -58 -33 -44 12 4 16 2
12 -8 -3 -8 -2 -16 3 -18 5 -2 12 -28 16 -59 6 -50 4 -58 -13 -67 -18 -10 -20
-8 -21 25 -1 36 -41 83 -70 83 -7 0 -20 7 -28 15 -16 16 -9 20 26 16 13 -2 13
0 1 8 -9 6 -23 5 -38 -2 -22 -10 -23 -15 -23 -109 0 -108 4 -114 63 -83 15 8
25 10 22 5 -3 -6 1 -7 9 -4 9 3 13 10 10 15 -6 10 -5 10 46 14 19 2 51 8 70
14 19 6 61 11 92 11 32 0 58 4 58 10 0 6 -4 10 -9 10 -14 0 -67 56 -103 108
-22 32 -31 56 -30 79 2 18 -2 33 -8 33 -5 0 -10 -6 -10 -14z m13 -159 c-3 -6
-1 -7 5 -3 6 3 16 -3 23 -15 10 -19 8 -25 -7 -36 -36 -26 -48 -13 -52 57 l-3
65 20 -29 c11 -17 17 -34 14 -39z m-156 -73 c-3 -3 -12 -4 -19 -1 -8 3 -5 6 6
6 11 1 17 -2 13 -5z"/>
<path d="M3493 1890 c-6 -19 -14 -47 -17 -62 -3 -14 -9 -34 -13 -45 -6 -15 -4
-16 8 -6 18 15 42 94 37 125 -3 20 -5 19 -15 -12z"/>
<path d="M203 1673 c27 -4 27 -5 27 -83 0 -87 -19 -184 -51 -257 -12 -26 -22
-57 -24 -68 -1 -11 -3 -24 -4 -28 0 -4 -9 -11 -20 -15 -10 -4 -44 -31 -76 -60
l-58 -53 34 -35 c31 -32 71 -45 83 -25 3 5 -1 14 -9 21 -10 9 -15 9 -15 1 0
-16 -35 -13 -50 4 -15 18 1 20 18 3 7 -7 12 -8 12 -2 0 6 -5 15 -10 20 -8 8
-6 15 5 24 13 11 20 9 46 -16 l31 -29 -7 45 c-5 37 -3 50 14 72 12 14 21 31
21 38 0 7 12 9 35 4 40 -7 47 7 15 29 -18 12 -19 18 -9 40 l11 25 49 -20 c27
-12 52 -18 55 -15 14 14 -7 35 -41 41 -43 8 -51 23 -35 71 10 29 16 35 40 35
40 0 48 19 11 26 l-31 7 0 72 c0 40 -3 87 -6 104 -6 29 -9 31 -48 30 -30 -2
-33 -3 -13 -6z"/>
<path d="M95 1660 l-20 -9 20 1 c11 0 31 4 45 8 l25 8 -25 0 c-14 0 -34 -3
-45 -8z"/>
<path d="M192 1630 c0 -19 2 -27 5 -17 2 9 2 25 0 35 -3 9 -5 1 -5 -18z"/>
<path d="M5 1629 c-11 -17 -2 -18 19 -3 17 12 17 14 4 14 -9 0 -20 -5 -23 -11z"/>
<path d="M303 1585 c5 -13 59 -13 64 1 2 6 -11 10 -32 10 -19 -1 -33 -5 -32
-11z"/>
<path d="M192 1540 c0 -19 2 -27 5 -17 2 9 2 25 0 35 -3 9 -5 1 -5 -18z"/>
<path d="M3290 1490 c-9 -6 -10 -10 -3 -10 6 0 15 5 18 10 8 12 4 12 -15 0z"/>
<path d="M270 1380 c0 -5 7 -10 15 -10 8 0 15 5 15 10 0 6 -7 10 -15 10 -8 0
-15 -4 -15 -10z"/>
<path d="M330 1366 c0 -9 5 -16 10 -16 6 0 10 4 10 9 0 6 -4 13 -10 16 -5 3
-10 -1 -10 -9z"/>
<path d="M265 1270 c3 -5 16 -10 28 -10 18 0 19 2 7 10 -20 13 -43 13 -35 0z"/>
<path d="M186 1192 c-3 -5 8 -18 24 -30 35 -26 49 -7 14 20 -25 20 -31 22 -38
10z"/>
<path d="M177 1130 c6 -21 28 -27 38 -11 3 6 -3 15 -14 20 -27 15 -30 14 -24
-9z"/>
<path d="M242 248 l2 -53 3 48 c4 49 18 63 26 25 5 -20 5 -20 4 2 -1 15 -9 26
-19 28 -16 3 -18 -4 -16 -50z"/>
<path d="M100 174 c-19 -13 -50 -30 -67 -36 -32 -12 -33 -13 -33 -75 l0 -63
83 0 c76 1 84 3 117 31 35 30 35 30 38 7 2 -13 7 -27 12 -31 9 -10 50 9 50 24
0 6 -7 3 -16 -5 -8 -9 -19 -16 -24 -16 -12 0 -18 58 -6 70 7 7 4 10 -8 10 -9
0 -14 4 -11 10 12 19 -17 35 -56 32 -42 -4 -55 14 -16 21 19 4 18 4 -5 6 -22
1 -28 -4 -28 -19 0 -16 7 -20 31 -20 l32 0 -38 -30 c-21 -16 -43 -30 -49 -30
-12 1 -80 59 -74 64 1 2 21 13 44 24 22 11 46 28 53 36 18 21 12 20 -29 -10z
m120 -94 c0 -5 -4 -10 -10 -10 -5 0 -10 5 -10 10 0 6 5 10 10 10 6 0 10 -4 10
-10z"/>
<path d="M255 150 c-3 -5 1 -10 9 -10 9 0 16 5 16 10 0 6 -4 10 -9 10 -6 0
-13 -4 -16 -10z"/>
<path d="M270 119 c0 -5 5 -7 10 -4 6 3 10 8 10 11 0 2 -4 4 -10 4 -5 0 -10
-5 -10 -11z"/>
<path d="M1766 113 c-4 -9 -2 -21 4 -27 7 -7 10 -2 10 17 0 31 -5 34 -14 10z"/>
<path d="M407 63 c-13 -13 -19 -14 -29 -5 -22 22 -32 12 -10 -11 27 -29 28
-41 2 -34 -11 3 -18 1 -14 -4 15 -24 65 3 56 31 -4 11 2 9 19 -5 l24 -20 -18
22 c-11 12 -16 27 -12 32 9 16 2 13 -18 -6z"/>
<path d="M320 22 c-23 -22 -23 -24 -3 -13 12 6 25 16 28 22 13 20 0 15 -25 -9z"/>
<path d="M1760 31 c0 -10 22 -31 33 -31 16 0 2 33 -15 36 -10 1 -18 -1 -18 -5z"/>
</g>
</svg>
